# xmcd
#
# Track frame offsets:
#	150
#	14491
#	26388
#	47050
#	59676
#	76428
#	91452
#	108501
#	123757
#	135916
#
# Disc length: 2196 seconds
#
# Revision: 0
# Processed by: cddbd v1.5.2PL0 Copyright (c) Steve Scherf et al.
# Submitted via: dBpowerAMP V4.0
#
DISCID=7b08920a
DTITLE=Daybreak quartet - not so far away
DYEAR=1900
DGENRE=
TTITLE0=Burdens are lifted at Calvary
TTITLE1=Happiness is the Lord
TTITLE2=The Cross Speaks Louder
TTITLE3=Hallelujah to his wonderful name
TTITLE4=Nothing but the Blood
TTITLE5=Winging my way back home
TTITLE6=The stone was rolled away
TTITLE7=What a meeting
TTITLE8=give me Souls
TTITLE9=Cherish that name
EXTD=this is southern gospel
EXTT0=
EXTT1=
EXTT2=
EXTT3=
EXTT4=
EXTT5=
EXTT6=
EXTT7=
EXTT8=
EXTT9=
PLAYORDER=
